# xmcd
#
# Track frame offsets:
#	150
#	12286
#	28229
#	39624
#	58446
#	76462
#	98107
#	107019
#	121181
#	132674
#
# Disc length: 2022 seconds
#
# Revision: 4
# Processed by: cddbd v1.5.2PL0 Copyright (c) Steve Scherf et al.
# Submitted via: EZCDAudioConverter 2.1.7.1
#
DISCID=8907e40a
DTITLE=Beach Boys - Surf's Up
DYEAR=1971
DGENRE=
TTITLE0=Don't Go Near The Water
TTITLE1=Long Promised Road
TTITLE2=Take A Load Off Your Feet
TTITLE3=Disney Girls (1957)
TTITLE4=Student Demonstration Time
TTITLE5=Feel Flows
TTITLE6=Lookin' At Tomorrow (A Welfare Song)
TTITLE7=A Day In The Life Of A Tree
TTITLE8='Til I Die
TTITLE9=Surf's Up
EXTD=
EXTT0=
EXTT1=
EXTT2=
EXTT3=
EXTT4=
EXTT5=
EXTT6=
EXTT7=
EXTT8=
EXTT9=
PLAYORDER=
